<svg width="46" height="46" viewBox="0 0 46 46" fill="none" xmlns="http://www.w3.org/2000/svg">
<path d="M42.6075 23.5961C42.6075 21.9772 42.4722 20.7958 42.1796 19.5707H23.1499V26.8776H34.3199C34.0948 28.6935 32.8787 31.4282 30.1762 33.2657L30.1383 33.5104L36.1551 38.0385L36.572 38.0789C40.4004 34.6441 42.6075 29.5904 42.6075 23.5961Z" fill="#4285F4"/>
<path d="M23.1488 42.8484C28.6212 42.8484 33.2152 41.0981 36.5709 38.0791L30.1751 33.2659C28.4636 34.4254 26.1665 35.2349 23.1488 35.2349C17.789 35.2349 13.24 31.8002 11.6184 27.0528L11.3807 27.0724L5.1243 31.7761L5.04248 31.997C8.37544 38.429 15.2216 42.8484 23.1488 42.8484Z" fill="#34A853"/>
<path d="M11.6191 27.0529C11.1913 25.8278 10.9436 24.5151 10.9436 23.1587C10.9436 21.8023 11.1913 20.4897 11.5966 19.2646L11.5853 19.0036L5.25051 14.2245L5.04325 14.3202C3.66957 16.9893 2.88135 19.9865 2.88135 23.1587C2.88135 26.3309 3.66957 29.328 5.04325 31.9971L11.6191 27.0529Z" fill="#FBBC05"/>
<path d="M23.1489 11.0825C26.9548 11.0825 29.5221 12.6795 30.986 14.0141L36.7061 8.58852C33.193 5.41633 28.6213 3.46924 23.1489 3.46924C15.2217 3.46924 8.37546 7.88842 5.04248 14.3203L11.5959 19.2646C13.24 14.5173 17.7891 11.0825 23.1489 11.0825Z" fill="#EB4335"/>
</svg>
